<svg width="344" height="93" viewBox="0 0 344 93" fill="none" xmlns="http://www.w3.org/2000/svg">
<rect x="0.36609" y="0.36609" width="325.689" height="92.2678" rx="46.1339" fill="white"/>
<rect x="0.36609" y="0.36609" width="325.689" height="92.2678" rx="46.1339" stroke="#CFDCDE" stroke-width="0.732181"/>
<circle cx="47" cy="46.5" r="39" fill="#FF6A00"/>
<path d="M46.9999 72.5002C48.094 56.2767 47.7442 46.8048 50.5151 44.237C53.0798 41.8578 57.707 41.2114 65.5714 40.6368C48.3182 38.6436 48.7306 39.1554 46.9999 22.3573C45.2692 39.1464 45.6817 38.6346 28.4285 40.6368C36.2839 41.2114 40.9111 41.8578 43.4847 44.237C46.2556 46.8137 45.9059 56.2857 46.9999 72.5002Z" fill="white"/>
<path d="M106.736 29.832C106.736 30.808 106.616 31.688 106.376 32.472C106.136 33.256 105.776 33.924 105.296 34.476C104.824 35.028 104.232 35.452 103.52 35.748C102.808 36.044 101.98 36.192 101.036 36.192C100.604 36.192 100.18 36.164 99.764 36.108C99.348 36.06 98.912 35.98 98.456 35.868L98.624 33.948C98.64 33.772 98.704 33.632 98.816 33.528C98.936 33.416 99.108 33.36 99.332 33.36C99.468 33.36 99.644 33.388 99.86 33.444C100.084 33.5 100.364 33.528 100.7 33.528C101.156 33.528 101.56 33.464 101.912 33.336C102.264 33.2 102.556 32.988 102.788 32.7C103.028 32.412 103.208 32.04 103.328 31.584C103.448 31.12 103.508 30.56 103.508 29.904V18.648H106.736V29.832ZM119.709 36H118.377C118.097 36 117.877 35.96 117.717 35.88C117.557 35.792 117.437 35.62 117.357 35.364L117.093 34.488C116.781 34.768 116.473 35.016 116.169 35.232C115.873 35.44 115.565 35.616 115.245 35.76C114.925 35.904 114.585 36.012 114.225 36.084C113.865 36.156 113.465 36.192 113.025 36.192C112.505 36.192 112.025 36.124 111.585 35.988C111.145 35.844 110.765 35.632 110.445 35.352C110.133 35.072 109.889 34.724 109.713 34.308C109.537 33.892 109.449 33.408 109.449 32.856C109.449 32.392 109.569 31.936 109.809 31.488C110.057 31.032 110.465 30.624 111.033 30.264C111.601 29.896 112.357 29.592 113.301 29.352C114.245 29.112 115.417 28.976 116.817 28.944V28.224C116.817 27.4 116.641 26.792 116.289 26.4C115.945 26 115.441 25.8 114.777 25.8C114.297 25.8 113.897 25.856 113.577 25.968C113.257 26.08 112.977 26.208 112.737 26.352C112.505 26.488 112.289 26.612 112.089 26.724C111.889 26.836 111.669 26.892 111.429 26.892C111.229 26.892 111.057 26.84 110.913 26.736C110.769 26.632 110.653 26.504 110.565 26.352L110.025 25.404C111.441 24.108 113.149 23.46 115.149 23.46C115.869 23.46 116.509 23.58 117.069 23.82C117.637 24.052 118.117 24.38 118.509 24.804C118.901 25.22 119.197 25.72 119.397 26.304C119.605 26.888 119.709 27.528 119.709 28.224V36ZM113.949 34.152C114.253 34.152 114.533 34.124 114.789 34.068C115.045 34.012 115.285 33.928 115.509 33.816C115.741 33.704 115.961 33.568 116.169 33.408C116.385 33.24 116.601 33.044 116.817 32.82V30.744C115.953 30.784 115.229 30.86 114.645 30.972C114.069 31.076 113.605 31.212 113.253 31.38C112.901 31.548 112.649 31.744 112.497 31.968C112.353 32.192 112.281 32.436 112.281 32.7C112.281 33.22 112.433 33.592 112.737 33.816C113.049 34.04 113.453 34.152 113.949 34.152ZM122.623 36V23.688H124.435C124.819 23.688 125.071 23.868 125.191 24.228L125.383 25.14C125.599 24.9 125.823 24.68 126.055 24.48C126.295 24.28 126.547 24.108 126.811 23.964C127.083 23.82 127.371 23.708 127.675 23.628C127.987 23.54 128.327 23.496 128.695 23.496C129.471 23.496 130.107 23.708 130.603 24.132C131.107 24.548 131.483 25.104 131.731 25.8C131.923 25.392 132.163 25.044 132.451 24.756C132.739 24.46 133.055 24.22 133.399 24.036C133.743 23.852 134.107 23.716 134.491 23.628C134.883 23.54 135.275 23.496 135.667 23.496C136.347 23.496 136.951 23.6 137.479 23.808C138.007 24.016 138.451 24.32 138.811 24.72C139.171 25.12 139.443 25.608 139.627 26.184C139.819 26.76 139.915 27.42 139.915 28.164V36H136.951V28.164C136.951 27.38 136.779 26.792 136.435 26.4C136.091 26 135.587 25.8 134.923 25.8C134.619 25.8 134.335 25.852 134.071 25.956C133.815 26.06 133.587 26.212 133.387 26.412C133.195 26.604 133.043 26.848 132.931 27.144C132.819 27.44 132.763 27.78 132.763 28.164V36H129.787V28.164C129.787 27.34 129.619 26.74 129.283 26.364C128.955 25.988 128.467 25.8 127.819 25.8C127.395 25.8 126.995 25.908 126.619 26.124C126.251 26.332 125.907 26.62 125.587 26.988V36H122.623ZM147.914 23.496C148.69 23.496 149.402 23.62 150.05 23.868C150.706 24.116 151.27 24.48 151.742 24.96C152.214 25.432 152.582 26.016 152.846 26.712C153.11 27.4 153.242 28.188 153.242 29.076C153.242 29.3 153.23 29.488 153.206 29.64C153.19 29.784 153.154 29.9 153.098 29.988C153.05 30.068 152.982 30.128 152.894 30.168C152.806 30.2 152.694 30.216 152.558 30.216H144.95C145.038 31.48 145.378 32.408 145.97 33C146.562 33.592 147.346 33.888 148.322 33.888C148.802 33.888 149.214 33.832 149.558 33.72C149.91 33.608 150.214 33.484 150.47 33.348C150.734 33.212 150.962 33.088 151.154 32.976C151.354 32.864 151.546 32.808 151.73 32.808C151.85 32.808 151.954 32.832 152.042 32.88C152.13 32.928 152.206 32.996 152.27 33.084L153.134 34.164C152.806 34.548 152.438 34.872 152.03 35.136C151.622 35.392 151.194 35.6 150.746 35.76C150.306 35.912 149.854 36.02 149.39 36.084C148.934 36.148 148.49 36.18 148.058 36.18C147.202 36.18 146.406 36.04 145.67 35.76C144.934 35.472 144.294 35.052 143.75 34.5C143.206 33.94 142.778 33.252 142.466 32.436C142.154 31.612 141.998 30.66 141.998 29.58C141.998 28.74 142.134 27.952 142.406 27.216C142.678 26.472 143.066 25.828 143.57 25.284C144.082 24.732 144.702 24.296 145.43 23.976C146.166 23.656 146.994 23.496 147.914 23.496ZM147.974 25.62C147.11 25.62 146.434 25.864 145.946 26.352C145.458 26.84 145.146 27.532 145.01 28.428H150.578C150.578 28.044 150.526 27.684 150.422 27.348C150.318 27.004 150.158 26.704 149.942 26.448C149.726 26.192 149.454 25.992 149.126 25.848C148.798 25.696 148.414 25.62 147.974 25.62ZM162.955 26.088C162.875 26.216 162.791 26.308 162.703 26.364C162.615 26.412 162.503 26.436 162.367 26.436C162.223 26.436 162.067 26.396 161.899 26.316C161.739 26.236 161.551 26.148 161.335 26.052C161.119 25.948 160.871 25.856 160.591 25.776C160.319 25.696 159.995 25.656 159.619 25.656C159.035 25.656 158.575 25.78 158.239 26.028C157.903 26.276 157.735 26.6 157.735 27C157.735 27.264 157.819 27.488 157.987 27.672C158.163 27.848 158.391 28.004 158.671 28.14C158.959 28.276 159.283 28.4 159.643 28.512C160.003 28.616 160.371 28.732 160.747 28.86C161.123 28.988 161.491 29.136 161.851 29.304C162.211 29.464 162.531 29.672 162.811 29.928C163.099 30.176 163.327 30.476 163.495 30.828C163.671 31.18 163.759 31.604 163.759 32.1C163.759 32.692 163.651 33.24 163.435 33.744C163.219 34.24 162.903 34.672 162.487 35.04C162.071 35.4 161.555 35.684 160.939 35.892C160.331 36.092 159.631 36.192 158.839 36.192C158.415 36.192 157.999 36.152 157.59 36.072C157.191 36 156.803 35.896 156.427 35.76C156.059 35.624 155.715 35.464 155.395 35.28C155.083 35.096 154.807 34.896 154.567 34.68L155.251 33.552C155.339 33.416 155.443 33.312 155.562 33.24C155.683 33.168 155.835 33.132 156.019 33.132C156.203 33.132 156.375 33.184 156.535 33.288C156.703 33.392 156.895 33.504 157.111 33.624C157.327 33.744 157.579 33.856 157.867 33.96C158.163 34.064 158.535 34.116 158.983 34.116C159.335 34.116 159.635 34.076 159.883 33.996C160.139 33.908 160.347 33.796 160.507 33.66C160.675 33.524 160.795 33.368 160.867 33.192C160.947 33.008 160.987 32.82 160.987 32.628C160.987 32.34 160.899 32.104 160.723 31.92C160.555 31.736 160.327 31.576 160.039 31.44C159.759 31.304 159.435 31.184 159.067 31.08C158.707 30.968 158.335 30.848 157.951 30.72C157.575 30.592 157.203 30.444 156.835 30.276C156.475 30.1 156.151 29.88 155.863 29.616C155.583 29.352 155.355 29.028 155.179 28.644C155.011 28.26 154.927 27.796 154.927 27.252C154.927 26.748 155.027 26.268 155.227 25.812C155.427 25.356 155.719 24.96 156.103 24.624C156.495 24.28 156.979 24.008 157.555 23.808C158.139 23.6 158.811 23.496 159.571 23.496C160.419 23.496 161.191 23.636 161.887 23.916C162.583 24.196 163.163 24.564 163.627 25.02L162.955 26.088Z" fill="black"/>
<path d="M99.488 55V48.112L98.592 48.008C98.48 47.9813 98.3867 47.9413 98.312 47.888C98.2427 47.8293 98.208 47.7467 98.208 47.64V47.056H99.488V46.272C99.488 45.808 99.552 45.3973 99.68 45.04C99.8133 44.6773 100 44.3733 100.24 44.128C100.485 43.8773 100.779 43.688 101.12 43.56C101.461 43.432 101.845 43.368 102.272 43.368C102.635 43.368 102.971 43.4213 103.28 43.528L103.248 44.24C103.243 44.3467 103.197 44.4107 103.112 44.432C103.027 44.4533 102.907 44.464 102.752 44.464H102.504C102.259 44.464 102.035 44.496 101.832 44.56C101.635 44.624 101.464 44.728 101.32 44.872C101.176 45.016 101.064 45.2053 100.984 45.44C100.909 45.6747 100.872 45.9653 100.872 46.312V47.056H103.216V48.088H100.92V55H99.488ZM104.559 55V46.896H105.375C105.529 46.896 105.636 46.9253 105.695 46.984C105.753 47.0427 105.793 47.144 105.815 47.288L105.911 48.552C106.188 47.9867 106.529 47.5467 106.935 47.232C107.345 46.912 107.825 46.752 108.375 46.752C108.599 46.752 108.801 46.7787 108.983 46.832C109.164 46.88 109.332 46.9493 109.487 47.04L109.303 48.104C109.265 48.2373 109.183 48.304 109.055 48.304C108.98 48.304 108.865 48.28 108.711 48.232C108.556 48.1787 108.34 48.152 108.063 48.152C107.567 48.152 107.151 48.296 106.815 48.584C106.484 48.872 106.207 49.2907 105.983 49.84V55H104.559ZM114.292 46.768C114.884 46.768 115.417 46.8667 115.892 47.064C116.372 47.2613 116.777 47.5413 117.108 47.904C117.444 48.2667 117.7 48.7067 117.876 49.224C118.057 49.736 118.148 50.3093 118.148 50.944C118.148 51.584 118.057 52.16 117.876 52.672C117.7 53.184 117.444 53.6213 117.108 53.984C116.777 54.3467 116.372 54.6267 115.892 54.824C115.417 55.016 114.884 55.112 114.292 55.112C113.7 55.112 113.164 55.016 112.684 54.824C112.209 54.6267 111.804 54.3467 111.468 53.984C111.132 53.6213 110.873 53.184 110.692 52.672C110.51 52.16 110.42 51.584 110.42 50.944C110.42 50.3093 110.51 49.736 110.692 49.224C110.873 48.7067 111.132 48.2667 111.468 47.904C111.804 47.5413 112.209 47.2613 112.684 47.064C113.164 46.8667 113.7 46.768 114.292 46.768ZM114.292 54C115.092 54 115.689 53.7333 116.084 53.2C116.478 52.6613 116.676 51.912 116.676 50.952C116.676 49.9867 116.478 49.2347 116.084 48.696C115.689 48.1573 115.092 47.888 114.292 47.888C113.886 47.888 113.534 47.9573 113.236 48.096C112.937 48.2347 112.686 48.4347 112.484 48.696C112.286 48.9573 112.137 49.28 112.036 49.664C111.94 50.0427 111.892 50.472 111.892 50.952C111.892 51.432 111.94 51.8613 112.036 52.24C112.137 52.6187 112.286 52.9387 112.484 53.2C112.686 53.456 112.937 53.6533 113.236 53.792C113.534 53.9307 113.886 54 114.292 54ZM119.902 55V46.896H120.75C120.953 46.896 121.081 46.9947 121.134 47.192L121.238 48.024C121.537 47.656 121.87 47.3547 122.238 47.12C122.612 46.8853 123.044 46.768 123.534 46.768C124.084 46.768 124.526 46.92 124.862 47.224C125.204 47.528 125.449 47.9387 125.598 48.456C125.71 48.1627 125.857 47.9093 126.038 47.696C126.225 47.4827 126.433 47.3067 126.662 47.168C126.892 47.0293 127.134 46.928 127.39 46.864C127.652 46.8 127.916 46.768 128.182 46.768C128.609 46.768 128.988 46.8373 129.318 46.976C129.654 47.1093 129.937 47.3067 130.166 47.568C130.401 47.8293 130.58 48.152 130.702 48.536C130.825 48.9147 130.886 49.3493 130.886 49.84V55H129.462V49.84C129.462 49.2053 129.324 48.7253 129.046 48.4C128.769 48.0693 128.366 47.904 127.838 47.904C127.604 47.904 127.38 47.9467 127.166 48.032C126.958 48.112 126.774 48.232 126.614 48.392C126.454 48.552 126.326 48.7547 126.23 49C126.14 49.24 126.094 49.52 126.094 49.84V55H124.67V49.84C124.67 49.1893 124.54 48.704 124.278 48.384C124.017 48.064 123.636 47.904 123.134 47.904C122.782 47.904 122.454 48 122.15 48.192C121.852 48.3787 121.577 48.6347 121.326 48.96V55H119.902ZM145.793 55H144.593C144.454 55 144.342 54.9653 144.257 54.896C144.171 54.8267 144.107 54.7387 144.065 54.632L142.993 51.864H137.849L136.777 54.632C136.739 54.728 136.675 54.8133 136.585 54.888C136.494 54.9627 136.382 55 136.249 55H135.049L139.633 43.536H141.209L145.793 55ZM138.281 50.744H142.561L140.761 46.08C140.643 45.792 140.529 45.432 140.417 45C140.358 45.2187 140.299 45.4213 140.241 45.608C140.187 45.7893 140.134 45.9493 140.081 46.088L138.281 50.744ZM155.22 43.536V44.112C155.22 44.2933 155.164 44.464 155.052 44.624L148.564 53.736H155.108V55H146.532V54.392C146.532 54.232 146.582 54.08 146.684 53.936L153.18 44.8H146.836V43.536H155.22ZM156.58 54.016C156.58 53.8933 156.601 53.7787 156.644 53.672C156.692 53.56 156.756 53.464 156.836 53.384C156.921 53.2987 157.023 53.232 157.14 53.184C157.257 53.136 157.385 53.112 157.524 53.112C157.684 53.112 157.825 53.1413 157.948 53.2C158.076 53.2587 158.18 53.3413 158.26 53.448C158.345 53.5493 158.409 53.6693 158.452 53.808C158.495 53.9413 158.516 54.088 158.516 54.248C158.516 54.488 158.481 54.7387 158.412 55C158.343 55.256 158.244 55.5093 158.116 55.76C157.988 56.016 157.828 56.264 157.636 56.504C157.449 56.744 157.236 56.9653 156.996 57.168L156.756 56.936C156.687 56.872 156.652 56.7973 156.652 56.712C156.652 56.6427 156.689 56.5707 156.764 56.496C156.817 56.4373 156.884 56.3573 156.964 56.256C157.049 56.16 157.135 56.048 157.22 55.92C157.305 55.792 157.383 55.6507 157.452 55.496C157.527 55.3413 157.58 55.176 157.612 55H157.508C157.369 55 157.244 54.976 157.132 54.928C157.02 54.88 156.921 54.8133 156.836 54.728C156.756 54.6373 156.692 54.5333 156.644 54.416C156.601 54.2933 156.58 54.16 156.58 54.016ZM168.121 48.232C168.057 48.3493 167.958 48.408 167.825 48.408C167.745 48.408 167.654 48.3787 167.553 48.32C167.451 48.2613 167.326 48.1973 167.177 48.128C167.033 48.0533 166.859 47.9867 166.657 47.928C166.454 47.864 166.214 47.832 165.937 47.832C165.697 47.832 165.481 47.864 165.289 47.928C165.097 47.9867 164.931 48.0693 164.793 48.176C164.659 48.2827 164.555 48.408 164.481 48.552C164.411 48.6907 164.377 48.8427 164.377 49.008C164.377 49.216 164.435 49.3893 164.553 49.528C164.675 49.6667 164.835 49.7867 165.033 49.888C165.23 49.9893 165.454 50.08 165.705 50.16C165.955 50.2347 166.211 50.3173 166.473 50.408C166.739 50.4933 166.998 50.5893 167.249 50.696C167.499 50.8027 167.723 50.936 167.921 51.096C168.118 51.256 168.275 51.4533 168.393 51.688C168.515 51.9173 168.577 52.1947 168.577 52.52C168.577 52.8933 168.51 53.24 168.377 53.56C168.243 53.8747 168.046 54.1493 167.785 54.384C167.523 54.6133 167.203 54.7947 166.825 54.928C166.446 55.0613 166.009 55.128 165.513 55.128C164.947 55.128 164.435 55.0373 163.977 54.856C163.518 54.6693 163.129 54.432 162.809 54.144L163.145 53.6C163.187 53.5307 163.238 53.4773 163.297 53.44C163.355 53.4027 163.433 53.384 163.529 53.384C163.625 53.384 163.726 53.4213 163.833 53.496C163.939 53.5707 164.067 53.6533 164.217 53.744C164.371 53.8347 164.555 53.9173 164.769 53.992C164.987 54.0667 165.259 54.104 165.585 54.104C165.862 54.104 166.105 54.0693 166.312 54C166.521 53.9253 166.694 53.8267 166.832 53.704C166.971 53.5813 167.073 53.44 167.137 53.28C167.206 53.12 167.241 52.9493 167.241 52.768C167.241 52.544 167.179 52.36 167.057 52.216C166.939 52.0667 166.782 51.9413 166.585 51.84C166.387 51.7333 166.161 51.6427 165.905 51.568C165.654 51.488 165.395 51.4053 165.129 51.32C164.867 51.2347 164.609 51.1387 164.353 51.032C164.102 50.92 163.878 50.7813 163.681 50.616C163.483 50.4507 163.323 50.248 163.201 50.008C163.083 49.7627 163.025 49.4667 163.025 49.12C163.025 48.8107 163.089 48.5147 163.217 48.232C163.345 47.944 163.531 47.6933 163.777 47.48C164.022 47.2613 164.323 47.088 164.681 46.96C165.038 46.832 165.446 46.768 165.905 46.768C166.438 46.768 166.915 46.8533 167.337 47.024C167.763 47.1893 168.131 47.4187 168.441 47.712L168.121 48.232ZM171.65 46.896V52.064C171.65 52.6773 171.791 53.152 172.074 53.488C172.357 53.824 172.783 53.992 173.354 53.992C173.77 53.992 174.162 53.8933 174.53 53.696C174.898 53.4987 175.237 53.224 175.546 52.872V46.896H176.97V55H176.122C175.919 55 175.791 54.9013 175.738 54.704L175.626 53.832C175.274 54.2213 174.879 54.536 174.442 54.776C174.005 55.0107 173.503 55.128 172.938 55.128C172.495 55.128 172.103 55.056 171.762 54.912C171.426 54.7627 171.143 54.5547 170.914 54.288C170.685 54.0213 170.511 53.6987 170.394 53.32C170.282 52.9413 170.226 52.5227 170.226 52.064V46.896H171.65ZM179.357 55V43.216H180.789V48.064C181.125 47.6747 181.509 47.3627 181.941 47.128C182.378 46.888 182.877 46.768 183.437 46.768C183.906 46.768 184.33 46.856 184.709 47.032C185.087 47.208 185.41 47.472 185.677 47.824C185.943 48.1707 186.149 48.6027 186.293 49.12C186.437 49.632 186.509 50.224 186.509 50.896C186.509 51.4933 186.429 52.0507 186.269 52.568C186.109 53.08 185.877 53.5253 185.573 53.904C185.274 54.2773 184.906 54.5733 184.469 54.792C184.037 55.0053 183.549 55.112 183.005 55.112C182.482 55.112 182.037 55.0107 181.669 54.808C181.306 54.6053 180.989 54.3227 180.717 53.96L180.645 54.696C180.602 54.8987 180.479 55 180.277 55H179.357ZM182.973 47.904C182.509 47.904 182.101 48.0107 181.749 48.224C181.402 48.4373 181.082 48.7387 180.789 49.128V53.048C181.045 53.4 181.327 53.648 181.637 53.792C181.951 53.936 182.301 54.008 182.685 54.008C183.442 54.008 184.023 53.7387 184.429 53.2C184.834 52.6613 185.037 51.8933 185.037 50.896C185.037 50.368 184.989 49.9147 184.893 49.536C184.802 49.1573 184.669 48.848 184.493 48.608C184.317 48.3627 184.101 48.184 183.845 48.072C183.589 47.96 183.298 47.904 182.973 47.904ZM192.886 48.232C192.822 48.3493 192.723 48.408 192.59 48.408C192.51 48.408 192.419 48.3787 192.318 48.32C192.217 48.2613 192.091 48.1973 191.942 48.128C191.798 48.0533 191.625 47.9867 191.422 47.928C191.219 47.864 190.979 47.832 190.702 47.832C190.462 47.832 190.246 47.864 190.054 47.928C189.862 47.9867 189.697 48.0693 189.558 48.176C189.425 48.2827 189.321 48.408 189.246 48.552C189.177 48.6907 189.142 48.8427 189.142 49.008C189.142 49.216 189.201 49.3893 189.318 49.528C189.441 49.6667 189.601 49.7867 189.798 49.888C189.995 49.9893 190.219 50.08 190.47 50.16C190.721 50.2347 190.977 50.3173 191.238 50.408C191.505 50.4933 191.763 50.5893 192.014 50.696C192.265 50.8027 192.489 50.936 192.686 51.096C192.883 51.256 193.041 51.4533 193.158 51.688C193.281 51.9173 193.342 52.1947 193.342 52.52C193.342 52.8933 193.275 53.24 193.142 53.56C193.009 53.8747 192.811 54.1493 192.55 54.384C192.289 54.6133 191.969 54.7947 191.59 54.928C191.211 55.0613 190.774 55.128 190.278 55.128C189.713 55.128 189.201 55.0373 188.742 54.856C188.283 54.6693 187.894 54.432 187.574 54.144L187.91 53.6C187.953 53.5307 188.003 53.4773 188.062 53.44C188.121 53.4027 188.198 53.384 188.294 53.384C188.39 53.384 188.491 53.4213 188.598 53.496C188.705 53.5707 188.833 53.6533 188.982 53.744C189.137 53.8347 189.321 53.9173 189.534 53.992C189.753 54.0667 190.025 54.104 190.35 54.104C190.627 54.104 190.87 54.0693 191.078 54C191.286 53.9253 191.459 53.8267 191.598 53.704C191.737 53.5813 191.838 53.44 191.902 53.28C191.971 53.12 192.006 52.9493 192.006 52.768C192.006 52.544 191.945 52.36 191.822 52.216C191.705 52.0667 191.547 51.9413 191.35 51.84C191.153 51.7333 190.926 51.6427 190.67 51.568C190.419 51.488 190.161 51.4053 189.894 51.32C189.633 51.2347 189.374 51.1387 189.118 51.032C188.867 50.92 188.643 50.7813 188.446 50.616C188.249 50.4507 188.089 50.248 187.966 50.008C187.849 49.7627 187.79 49.4667 187.79 49.12C187.79 48.8107 187.854 48.5147 187.982 48.232C188.11 47.944 188.297 47.6933 188.542 47.48C188.787 47.2613 189.089 47.088 189.446 46.96C189.803 46.832 190.211 46.768 190.67 46.768C191.203 46.768 191.681 46.8533 192.102 47.024C192.529 47.1893 192.897 47.4187 193.206 47.712L192.886 48.232ZM200.712 48.336C200.669 48.3947 200.626 48.44 200.584 48.472C200.541 48.504 200.48 48.52 200.4 48.52C200.32 48.52 200.232 48.488 200.136 48.424C200.045 48.3547 199.928 48.28 199.784 48.2C199.64 48.12 199.464 48.048 199.256 47.984C199.053 47.9147 198.802 47.88 198.504 47.88C198.109 47.88 197.76 47.952 197.456 48.096C197.152 48.2347 196.896 48.4373 196.688 48.704C196.485 48.9707 196.33 49.2933 196.224 49.672C196.122 50.0507 196.072 50.4747 196.072 50.944C196.072 51.4347 196.128 51.872 196.24 52.256C196.352 52.6347 196.509 52.9547 196.712 53.216C196.914 53.472 197.16 53.6693 197.448 53.808C197.741 53.9413 198.069 54.008 198.432 54.008C198.778 54.008 199.064 53.968 199.288 53.888C199.512 53.8027 199.698 53.7093 199.848 53.608C199.997 53.5067 200.12 53.416 200.216 53.336C200.312 53.2507 200.408 53.208 200.504 53.208C200.626 53.208 200.717 53.2533 200.776 53.344L201.176 53.864C200.824 54.296 200.384 54.6133 199.856 54.816C199.328 55.0133 198.77 55.112 198.184 55.112C197.677 55.112 197.205 55.0187 196.768 54.832C196.336 54.6453 195.96 54.376 195.64 54.024C195.32 53.6667 195.066 53.2293 194.88 52.712C194.698 52.1947 194.608 51.6053 194.608 50.944C194.608 50.3413 194.69 49.784 194.856 49.272C195.026 48.76 195.272 48.32 195.592 47.952C195.917 47.5787 196.317 47.288 196.792 47.08C197.266 46.872 197.81 46.768 198.424 46.768C198.989 46.768 199.49 46.8613 199.928 47.048C200.365 47.2293 200.752 47.488 201.088 47.824L200.712 48.336ZM202.652 55V46.896H203.468C203.623 46.896 203.73 46.9253 203.788 46.984C203.847 47.0427 203.887 47.144 203.908 47.288L204.004 48.552C204.282 47.9867 204.623 47.5467 205.028 47.232C205.439 46.912 205.919 46.752 206.468 46.752C206.692 46.752 206.895 46.7787 207.076 46.832C207.258 46.88 207.426 46.9493 207.58 47.04L207.396 48.104C207.359 48.2373 207.276 48.304 207.148 48.304C207.074 48.304 206.959 48.28 206.804 48.232C206.65 48.1787 206.434 48.152 206.156 48.152C205.66 48.152 205.244 48.296 204.908 48.584C204.578 48.872 204.3 49.2907 204.076 49.84V55H202.652ZM210.69 46.896V55H209.266V46.896H210.69ZM211.01 44.352C211.01 44.4907 210.98 44.6213 210.922 44.744C210.868 44.8613 210.794 44.968 210.698 45.064C210.607 45.1547 210.5 45.2267 210.378 45.28C210.255 45.3333 210.124 45.36 209.986 45.36C209.847 45.36 209.716 45.3333 209.594 45.28C209.476 45.2267 209.37 45.1547 209.274 45.064C209.183 44.968 209.111 44.8613 209.058 44.744C209.004 44.6213 208.978 44.4907 208.978 44.352C208.978 44.2133 209.004 44.0827 209.058 43.96C209.111 43.832 209.183 43.7227 209.274 43.632C209.37 43.536 209.476 43.4613 209.594 43.408C209.716 43.3547 209.847 43.328 209.986 43.328C210.124 43.328 210.255 43.3547 210.378 43.408C210.5 43.4613 210.607 43.536 210.698 43.632C210.794 43.7227 210.868 43.832 210.922 43.96C210.98 44.0827 211.01 44.2133 211.01 44.352ZM213.247 55V43.216H214.679V48.064C215.015 47.6747 215.399 47.3627 215.831 47.128C216.269 46.888 216.767 46.768 217.327 46.768C217.797 46.768 218.221 46.856 218.599 47.032C218.978 47.208 219.301 47.472 219.567 47.824C219.834 48.1707 220.039 48.6027 220.183 49.12C220.327 49.632 220.399 50.224 220.399 50.896C220.399 51.4933 220.319 52.0507 220.159 52.568C219.999 53.08 219.767 53.5253 219.463 53.904C219.165 54.2773 218.797 54.5733 218.359 54.792C217.927 55.0053 217.439 55.112 216.895 55.112C216.373 55.112 215.927 55.0107 215.559 54.808C215.197 54.6053 214.879 54.3227 214.607 53.96L214.535 54.696C214.493 54.8987 214.37 55 214.167 55H213.247ZM216.863 47.904C216.399 47.904 215.991 48.0107 215.639 48.224C215.293 48.4373 214.973 48.7387 214.679 49.128V53.048C214.935 53.4 215.218 53.648 215.527 53.792C215.842 53.936 216.191 54.008 216.575 54.008C217.333 54.008 217.914 53.7387 218.319 53.2C218.725 52.6613 218.927 51.8933 218.927 50.896C218.927 50.368 218.879 49.9147 218.783 49.536C218.693 49.1573 218.559 48.848 218.383 48.608C218.207 48.3627 217.991 48.184 217.735 48.072C217.479 47.96 217.189 47.904 216.863 47.904ZM225.345 46.768C225.83 46.768 226.278 46.8507 226.689 47.016C227.099 47.176 227.454 47.4107 227.753 47.72C228.051 48.024 228.283 48.4027 228.449 48.856C228.619 49.304 228.705 49.816 228.705 50.392C228.705 50.616 228.681 50.7653 228.633 50.84C228.585 50.9147 228.494 50.952 228.361 50.952H222.969C222.979 51.464 223.049 51.9093 223.177 52.288C223.305 52.6667 223.481 52.984 223.705 53.24C223.929 53.4907 224.195 53.68 224.505 53.808C224.814 53.9307 225.161 53.992 225.545 53.992C225.902 53.992 226.209 53.952 226.465 53.872C226.726 53.7867 226.95 53.696 227.137 53.6C227.323 53.504 227.478 53.416 227.601 53.336C227.729 53.2507 227.838 53.208 227.929 53.208C228.046 53.208 228.137 53.2533 228.201 53.344L228.601 53.864C228.425 54.0773 228.214 54.264 227.969 54.424C227.723 54.5787 227.459 54.7067 227.177 54.808C226.899 54.9093 226.611 54.984 226.313 55.032C226.014 55.0853 225.718 55.112 225.425 55.112C224.865 55.112 224.347 55.0187 223.873 54.832C223.403 54.64 222.995 54.3627 222.649 54C222.307 53.632 222.041 53.1787 221.849 52.64C221.657 52.1013 221.561 51.4827 221.561 50.784C221.561 50.2187 221.646 49.6907 221.817 49.2C221.993 48.7093 222.243 48.2853 222.569 47.928C222.894 47.5653 223.291 47.2827 223.761 47.08C224.23 46.872 224.758 46.768 225.345 46.768ZM225.377 47.816C224.689 47.816 224.147 48.016 223.753 48.416C223.358 48.8107 223.113 49.36 223.017 50.064H227.425C227.425 49.7333 227.379 49.432 227.289 49.16C227.198 48.8827 227.065 48.6453 226.889 48.448C226.713 48.2453 226.497 48.0907 226.241 47.984C225.99 47.872 225.702 47.816 225.377 47.816ZM236.231 55C236.029 55 235.901 54.9013 235.847 54.704L235.719 53.72C235.373 54.1413 234.975 54.48 234.527 54.736C234.085 54.9867 233.575 55.112 232.999 55.112C232.535 55.112 232.114 55.024 231.735 54.848C231.357 54.6667 231.034 54.4027 230.767 54.056C230.501 53.7093 230.295 53.2773 230.151 52.76C230.007 52.2427 229.935 51.648 229.935 50.976C229.935 50.3787 230.015 49.824 230.175 49.312C230.335 48.7947 230.565 48.3467 230.863 47.968C231.167 47.5893 231.535 47.2933 231.967 47.08C232.399 46.8613 232.89 46.752 233.439 46.752C233.935 46.752 234.359 46.8373 234.711 47.008C235.063 47.1733 235.378 47.408 235.655 47.712V43.216H237.079V55H236.231ZM233.471 53.96C233.935 53.96 234.341 53.8533 234.687 53.64C235.039 53.4267 235.362 53.1253 235.655 52.736V48.816C235.394 48.464 235.106 48.2187 234.791 48.08C234.482 47.936 234.138 47.864 233.759 47.864C233.002 47.864 232.421 48.1333 232.015 48.672C231.61 49.2107 231.407 49.9787 231.407 50.976C231.407 51.504 231.453 51.9573 231.543 52.336C231.634 52.7093 231.767 53.0187 231.943 53.264C232.119 53.504 232.335 53.68 232.591 53.792C232.847 53.904 233.141 53.96 233.471 53.96ZM245.015 55.128C244.375 55.128 243.881 54.9493 243.535 54.592C243.193 54.2347 243.023 53.72 243.023 53.048V48.088H242.047C241.961 48.088 241.889 48.064 241.831 48.016C241.772 47.9627 241.743 47.8827 241.743 47.776V47.208L243.071 47.04L243.399 44.536C243.409 44.456 243.444 44.392 243.503 44.344C243.561 44.2907 243.636 44.264 243.727 44.264H244.447V47.056H246.767V48.088H244.447V52.952C244.447 53.2933 244.529 53.5467 244.695 53.712C244.86 53.8773 245.073 53.96 245.335 53.96C245.484 53.96 245.612 53.9413 245.719 53.904C245.831 53.8613 245.927 53.816 246.007 53.768C246.087 53.72 246.153 53.6773 246.207 53.64C246.265 53.5973 246.316 53.576 246.359 53.576C246.433 53.576 246.5 53.6213 246.559 53.712L246.975 54.392C246.729 54.6213 246.433 54.8027 246.087 54.936C245.74 55.064 245.383 55.128 245.015 55.128ZM251.807 46.768C252.399 46.768 252.933 46.8667 253.407 47.064C253.887 47.2613 254.293 47.5413 254.623 47.904C254.959 48.2667 255.215 48.7067 255.391 49.224C255.573 49.736 255.663 50.3093 255.663 50.944C255.663 51.584 255.573 52.16 255.391 52.672C255.215 53.184 254.959 53.6213 254.623 53.984C254.293 54.3467 253.887 54.6267 253.407 54.824C252.933 55.016 252.399 55.112 251.807 55.112C251.215 55.112 250.679 55.016 250.199 54.824C249.725 54.6267 249.319 54.3467 248.983 53.984C248.647 53.6213 248.389 53.184 248.207 52.672C248.026 52.16 247.935 51.584 247.935 50.944C247.935 50.3093 248.026 49.736 248.207 49.224C248.389 48.7067 248.647 48.2667 248.983 47.904C249.319 47.5413 249.725 47.2613 250.199 47.064C250.679 46.8667 251.215 46.768 251.807 46.768ZM251.807 54C252.607 54 253.205 53.7333 253.599 53.2C253.994 52.6613 254.191 51.912 254.191 50.952C254.191 49.9867 253.994 49.2347 253.599 48.696C253.205 48.1573 252.607 47.888 251.807 47.888C251.402 47.888 251.05 47.9573 250.751 48.096C250.453 48.2347 250.202 48.4347 249.999 48.696C249.802 48.9573 249.653 49.28 249.551 49.664C249.455 50.0427 249.407 50.472 249.407 50.952C249.407 51.432 249.455 51.8613 249.551 52.24C249.653 52.6187 249.802 52.9387 249.999 53.2C250.202 53.456 250.453 53.6533 250.751 53.792C251.05 53.9307 251.402 54 251.807 54ZM259.456 43.536H260.744C260.882 43.536 260.997 43.5707 261.088 43.64C261.178 43.7093 261.24 43.7973 261.272 43.904L263.64 51.872C263.682 52.016 263.72 52.1707 263.752 52.336C263.789 52.5013 263.824 52.6747 263.856 52.856C263.893 52.6747 263.93 52.5013 263.968 52.336C264.005 52.1653 264.048 52.0107 264.096 51.872L266.792 43.904C266.824 43.8133 266.885 43.7307 266.976 43.656C267.072 43.576 267.186 43.536 267.32 43.536H267.768C267.906 43.536 268.018 43.5707 268.104 43.64C268.194 43.7093 268.258 43.7973 268.296 43.904L270.976 51.872C271.072 52.1493 271.157 52.4667 271.232 52.824C271.264 52.648 271.293 52.48 271.32 52.32C271.346 52.16 271.381 52.0107 271.424 51.872L273.8 43.904C273.826 43.808 273.885 43.7227 273.976 43.648C274.072 43.5733 274.186 43.536 274.32 43.536H275.528L271.952 55H270.56L267.656 46.256C267.597 46.0907 267.544 45.8987 267.496 45.68C267.469 45.7867 267.442 45.8907 267.416 45.992C267.394 46.088 267.37 46.176 267.344 46.256L264.424 55H263.032L259.456 43.536ZM279.839 46.768C280.431 46.768 280.964 46.8667 281.439 47.064C281.919 47.2613 282.324 47.5413 282.655 47.904C282.991 48.2667 283.247 48.7067 283.423 49.224C283.604 49.736 283.695 50.3093 283.695 50.944C283.695 51.584 283.604 52.16 283.423 52.672C283.247 53.184 282.991 53.6213 282.655 53.984C282.324 54.3467 281.919 54.6267 281.439 54.824C280.964 55.016 280.431 55.112 279.839 55.112C279.247 55.112 278.711 55.016 278.231 54.824C277.756 54.6267 277.351 54.3467 277.015 53.984C276.679 53.6213 276.42 53.184 276.239 52.672C276.057 52.16 275.967 51.584 275.967 50.944C275.967 50.3093 276.057 49.736 276.239 49.224C276.42 48.7067 276.679 48.2667 277.015 47.904C277.351 47.5413 277.756 47.2613 278.231 47.064C278.711 46.8667 279.247 46.768 279.839 46.768ZM279.839 54C280.639 54 281.236 53.7333 281.631 53.2C282.025 52.6613 282.223 51.912 282.223 50.952C282.223 49.9867 282.025 49.2347 281.631 48.696C281.236 48.1573 280.639 47.888 279.839 47.888C279.433 47.888 279.081 47.9573 278.783 48.096C278.484 48.2347 278.233 48.4347 278.031 48.696C277.833 48.9573 277.684 49.28 277.583 49.664C277.487 50.0427 277.439 50.472 277.439 50.952C277.439 51.432 277.487 51.8613 277.583 52.24C277.684 52.6187 277.833 52.9387 278.031 53.2C278.233 53.456 278.484 53.6533 278.783 53.792C279.081 53.9307 279.433 54 279.839 54ZM285.449 55V46.896H286.265C286.42 46.896 286.527 46.9253 286.585 46.984C286.644 47.0427 286.684 47.144 286.705 47.288L286.801 48.552C287.079 47.9867 287.42 47.5467 287.825 47.232C288.236 46.912 288.716 46.752 289.265 46.752C289.489 46.752 289.692 46.7787 289.873 46.832C290.055 46.88 290.223 46.9493 290.377 47.04L290.193 48.104C290.156 48.2373 290.073 48.304 289.945 48.304C289.871 48.304 289.756 48.28 289.601 48.232C289.447 48.1787 289.231 48.152 288.953 48.152C288.457 48.152 288.041 48.296 287.705 48.584C287.375 48.872 287.097 49.2907 286.873 49.84V55H285.449ZM293.486 43.216V55H292.062V43.216H293.486ZM301.7 55C301.497 55 301.369 54.9013 301.316 54.704L301.188 53.72C300.841 54.1413 300.444 54.48 299.996 54.736C299.553 54.9867 299.044 55.112 298.468 55.112C298.004 55.112 297.583 55.024 297.204 54.848C296.825 54.6667 296.503 54.4027 296.236 54.056C295.969 53.7093 295.764 53.2773 295.62 52.76C295.476 52.2427 295.404 51.648 295.404 50.976C295.404 50.3787 295.484 49.824 295.644 49.312C295.804 48.7947 296.033 48.3467 296.332 47.968C296.636 47.5893 297.004 47.2933 297.436 47.08C297.868 46.8613 298.359 46.752 298.908 46.752C299.404 46.752 299.828 46.8373 300.18 47.008C300.532 47.1733 300.847 47.408 301.124 47.712V43.216H302.548V55H301.7ZM298.94 53.96C299.404 53.96 299.809 53.8533 300.156 53.64C300.508 53.4267 300.831 53.1253 301.124 52.736V48.816C300.863 48.464 300.575 48.2187 300.26 48.08C299.951 47.936 299.607 47.864 299.228 47.864C298.471 47.864 297.889 48.1333 297.484 48.672C297.079 49.2107 296.876 49.9787 296.876 50.976C296.876 51.504 296.921 51.9573 297.012 52.336C297.103 52.7093 297.236 53.0187 297.412 53.264C297.588 53.504 297.804 53.68 298.06 53.792C298.316 53.904 298.609 53.96 298.94 53.96ZM107.472 71.632C107.557 71.632 107.635 71.6667 107.704 71.736L108.312 72.4C107.843 72.944 107.272 73.368 106.6 73.672C105.933 73.976 105.128 74.128 104.184 74.128C103.357 74.128 102.608 73.9867 101.936 73.704C101.264 73.416 100.691 73.016 100.216 72.504C99.7413 71.9867 99.3733 71.368 99.112 70.648C98.8507 69.928 98.72 69.136 98.72 68.272C98.72 67.408 98.8587 66.616 99.136 65.896C99.4187 65.176 99.8133 64.5573 100.32 64.04C100.827 63.5227 101.432 63.1227 102.136 62.84C102.845 62.552 103.627 62.408 104.48 62.408C105.323 62.408 106.048 62.5387 106.656 62.8C107.269 63.0613 107.813 63.416 108.288 63.864L107.784 64.576C107.747 64.6293 107.704 64.6747 107.656 64.712C107.608 64.744 107.539 64.76 107.448 64.76C107.379 64.76 107.304 64.736 107.224 64.688C107.149 64.6347 107.059 64.5707 106.952 64.496C106.845 64.4213 106.72 64.3413 106.576 64.256C106.432 64.1707 106.261 64.0907 106.064 64.016C105.867 63.9413 105.637 63.88 105.376 63.832C105.115 63.7787 104.813 63.752 104.472 63.752C103.859 63.752 103.296 63.8587 102.784 64.072C102.277 64.28 101.84 64.5787 101.472 64.968C101.104 65.3573 100.816 65.832 100.608 66.392C100.405 66.952 100.304 67.5787 100.304 68.272C100.304 68.9867 100.405 69.624 100.608 70.184C100.816 70.744 101.096 71.2187 101.448 71.608C101.805 71.992 102.227 72.2853 102.712 72.488C103.197 72.6907 103.72 72.792 104.28 72.792C104.621 72.792 104.928 72.7733 105.2 72.736C105.472 72.6933 105.723 72.6293 105.952 72.544C106.187 72.4587 106.403 72.352 106.6 72.224C106.803 72.0907 107.005 71.9333 107.208 71.752C107.299 71.672 107.387 71.632 107.472 71.632ZM110.121 74V62.216H111.545V66.984C111.892 66.616 112.276 66.3227 112.697 66.104C113.118 65.88 113.604 65.768 114.153 65.768C114.596 65.768 114.985 65.8427 115.321 65.992C115.662 66.136 115.945 66.344 116.169 66.616C116.398 66.8827 116.572 67.2053 116.689 67.584C116.806 67.9627 116.865 68.3813 116.865 68.84V74H115.441V68.84C115.441 68.2267 115.3 67.752 115.017 67.416C114.74 67.0747 114.313 66.904 113.737 66.904C113.316 66.904 112.921 67.0053 112.553 67.208C112.19 67.4107 111.854 67.6853 111.545 68.032V74H110.121ZM124.964 74H124.332C124.193 74 124.081 73.9787 123.996 73.936C123.91 73.8933 123.854 73.8027 123.828 73.664L123.668 72.912C123.454 73.104 123.246 73.2773 123.044 73.432C122.841 73.5813 122.628 73.7093 122.404 73.816C122.18 73.9173 121.94 73.9947 121.684 74.048C121.433 74.1013 121.153 74.128 120.844 74.128C120.529 74.128 120.233 74.0853 119.956 74C119.684 73.9093 119.446 73.776 119.244 73.6C119.041 73.424 118.878 73.2027 118.756 72.936C118.638 72.664 118.58 72.344 118.58 71.976C118.58 71.656 118.668 71.3493 118.844 71.056C119.02 70.7573 119.302 70.4933 119.692 70.264C120.086 70.0347 120.601 69.848 121.236 69.704C121.87 69.5547 122.646 69.4693 123.564 69.448V68.816C123.564 68.1867 123.428 67.712 123.156 67.392C122.889 67.0667 122.492 66.904 121.964 66.904C121.617 66.904 121.324 66.9493 121.084 67.04C120.849 67.1253 120.644 67.224 120.468 67.336C120.297 67.4427 120.148 67.5413 120.02 67.632C119.897 67.7173 119.774 67.76 119.652 67.76C119.556 67.76 119.47 67.736 119.396 67.688C119.326 67.6347 119.27 67.5707 119.228 67.496L118.972 67.04C119.42 66.608 119.902 66.2853 120.42 66.072C120.937 65.8587 121.51 65.752 122.14 65.752C122.593 65.752 122.996 65.8267 123.348 65.976C123.7 66.1253 123.996 66.3333 124.236 66.6C124.476 66.8667 124.657 67.1893 124.78 67.568C124.902 67.9467 124.964 68.3627 124.964 68.816V74ZM121.268 73.128C121.518 73.128 121.748 73.104 121.956 73.056C122.164 73.0027 122.358 72.9307 122.54 72.84C122.726 72.744 122.902 72.6293 123.068 72.496C123.238 72.3627 123.404 72.2107 123.564 72.04V70.352C122.908 70.3733 122.35 70.4267 121.892 70.512C121.433 70.592 121.06 70.6987 120.772 70.832C120.484 70.9653 120.273 71.1227 120.14 71.304C120.012 71.4853 119.948 71.688 119.948 71.912C119.948 72.1253 119.982 72.3093 120.052 72.464C120.121 72.6187 120.214 72.7467 120.332 72.848C120.449 72.944 120.588 73.016 120.748 73.064C120.908 73.1067 121.081 73.128 121.268 73.128ZM127.121 74V65.896H127.969C128.172 65.896 128.3 65.9947 128.353 66.192L128.465 67.072C128.817 66.6827 129.209 66.368 129.641 66.128C130.078 65.888 130.582 65.768 131.153 65.768C131.596 65.768 131.985 65.8427 132.321 65.992C132.662 66.136 132.945 66.344 133.169 66.616C133.398 66.8827 133.572 67.2053 133.689 67.584C133.806 67.9627 133.865 68.3813 133.865 68.84V74H132.441V68.84C132.441 68.2267 132.3 67.752 132.017 67.416C131.74 67.0747 131.313 66.904 130.737 66.904C130.316 66.904 129.921 67.0053 129.553 67.208C129.19 67.4107 128.854 67.6853 128.545 68.032V74H127.121ZM138.74 65.76C139.092 65.76 139.42 65.8 139.724 65.88C140.033 65.9547 140.313 66.0667 140.564 66.216H142.764V66.744C142.764 66.92 142.652 67.032 142.428 67.08L141.508 67.208C141.689 67.5547 141.78 67.9413 141.78 68.368C141.78 68.7627 141.702 69.1227 141.548 69.448C141.398 69.768 141.188 70.0427 140.916 70.272C140.649 70.5013 140.329 70.6773 139.956 70.8C139.588 70.9227 139.182 70.984 138.74 70.984C138.361 70.984 138.004 70.9387 137.668 70.848C137.497 70.9547 137.366 71.0693 137.276 71.192C137.19 71.3147 137.148 71.4347 137.148 71.552C137.148 71.744 137.225 71.8907 137.38 71.992C137.534 72.088 137.74 72.1573 137.996 72.2C138.252 72.2427 138.542 72.2693 138.868 72.28C139.193 72.2907 139.524 72.3093 139.86 72.336C140.201 72.3573 140.534 72.3973 140.86 72.456C141.185 72.5147 141.476 72.6107 141.732 72.744C141.988 72.8773 142.193 73.0613 142.348 73.296C142.502 73.5307 142.58 73.8347 142.58 74.208C142.58 74.5547 142.492 74.8907 142.316 75.216C142.145 75.5413 141.897 75.8293 141.572 76.08C141.246 76.336 140.849 76.5387 140.38 76.688C139.91 76.8427 139.38 76.92 138.788 76.92C138.196 76.92 137.676 76.8613 137.228 76.744C136.785 76.6267 136.417 76.4693 136.124 76.272C135.83 76.0747 135.609 75.8453 135.46 75.584C135.316 75.328 135.244 75.0587 135.244 74.776C135.244 74.376 135.369 74.0373 135.62 73.76C135.876 73.4773 136.225 73.2533 136.668 73.088C136.438 72.9813 136.254 72.84 136.116 72.664C135.982 72.4827 135.916 72.2427 135.916 71.944C135.916 71.8267 135.937 71.7067 135.98 71.584C136.022 71.456 136.086 71.3307 136.172 71.208C136.262 71.0853 136.372 70.968 136.5 70.856C136.628 70.744 136.777 70.6453 136.948 70.56C136.548 70.336 136.233 70.04 136.004 69.672C135.78 69.2987 135.668 68.864 135.668 68.368C135.668 67.9733 135.742 67.616 135.892 67.296C136.046 66.9707 136.26 66.696 136.532 66.472C136.804 66.2427 137.126 66.0667 137.5 65.944C137.878 65.8213 138.292 65.76 138.74 65.76ZM141.268 74.44C141.268 74.2373 141.212 74.0747 141.1 73.952C140.988 73.8293 140.836 73.736 140.644 73.672C140.452 73.6027 140.23 73.552 139.98 73.52C139.729 73.488 139.465 73.4667 139.188 73.456C138.91 73.44 138.628 73.424 138.34 73.408C138.052 73.392 137.777 73.3627 137.516 73.32C137.212 73.464 136.964 73.64 136.772 73.848C136.585 74.056 136.492 74.304 136.492 74.592C136.492 74.7733 136.537 74.9413 136.628 75.096C136.724 75.256 136.868 75.392 137.06 75.504C137.252 75.6213 137.492 75.712 137.78 75.776C138.073 75.8453 138.417 75.88 138.812 75.88C139.196 75.88 139.54 75.8453 139.844 75.776C140.148 75.7067 140.404 75.608 140.612 75.48C140.825 75.352 140.988 75.2 141.1 75.024C141.212 74.848 141.268 74.6533 141.268 74.44ZM138.74 70.04C139.028 70.04 139.281 70 139.5 69.92C139.724 69.84 139.91 69.728 140.06 69.584C140.209 69.44 140.321 69.2693 140.396 69.072C140.47 68.8693 140.508 68.648 140.508 68.408C140.508 67.912 140.356 67.5173 140.052 67.224C139.753 66.9307 139.316 66.784 138.74 66.784C138.169 66.784 137.732 66.9307 137.428 67.224C137.129 67.5173 136.98 67.912 136.98 68.408C136.98 68.648 137.017 68.8693 137.092 69.072C137.172 69.2693 137.286 69.44 137.436 69.584C137.585 69.728 137.769 69.84 137.988 69.92C138.206 70 138.457 70.04 138.74 70.04ZM147.392 65.768C147.877 65.768 148.325 65.8507 148.736 66.016C149.146 66.176 149.501 66.4107 149.8 66.72C150.098 67.024 150.33 67.4027 150.496 67.856C150.666 68.304 150.752 68.816 150.752 69.392C150.752 69.616 150.728 69.7653 150.68 69.84C150.632 69.9147 150.541 69.952 150.408 69.952H145.016C145.026 70.464 145.096 70.9093 145.224 71.288C145.352 71.6667 145.528 71.984 145.752 72.24C145.976 72.4907 146.242 72.68 146.552 72.808C146.861 72.9307 147.208 72.992 147.592 72.992C147.949 72.992 148.256 72.952 148.512 72.872C148.773 72.7867 148.997 72.696 149.184 72.6C149.37 72.504 149.525 72.416 149.648 72.336C149.776 72.2507 149.885 72.208 149.976 72.208C150.093 72.208 150.184 72.2533 150.248 72.344L150.648 72.864C150.472 73.0773 150.261 73.264 150.016 73.424C149.77 73.5787 149.506 73.7067 149.224 73.808C148.946 73.9093 148.658 73.984 148.36 74.032C148.061 74.0853 147.765 74.112 147.472 74.112C146.912 74.112 146.394 74.0187 145.92 73.832C145.45 73.64 145.042 73.3627 144.696 73C144.354 72.632 144.088 72.1787 143.896 71.64C143.704 71.1013 143.608 70.4827 143.608 69.784C143.608 69.2187 143.693 68.6907 143.864 68.2C144.04 67.7093 144.29 67.2853 144.616 66.928C144.941 66.5653 145.338 66.2827 145.808 66.08C146.277 65.872 146.805 65.768 147.392 65.768ZM147.424 66.816C146.736 66.816 146.194 67.016 145.8 67.416C145.405 67.8107 145.16 68.36 145.064 69.064H149.472C149.472 68.7333 149.426 68.432 149.336 68.16C149.245 67.8827 149.112 67.6453 148.936 67.448C148.76 67.2453 148.544 67.0907 148.288 66.984C148.037 66.872 147.749 66.816 147.424 66.816ZM155.988 74V67.112L155.092 67.008C154.98 66.9813 154.887 66.9413 154.812 66.888C154.743 66.8293 154.708 66.7467 154.708 66.64V66.056H155.988V65.272C155.988 64.808 156.052 64.3973 156.18 64.04C156.313 63.6773 156.5 63.3733 156.74 63.128C156.985 62.8773 157.279 62.688 157.62 62.56C157.961 62.432 158.345 62.368 158.772 62.368C159.135 62.368 159.471 62.4213 159.78 62.528L159.748 63.24C159.743 63.3467 159.697 63.4107 159.612 63.432C159.527 63.4533 159.407 63.464 159.252 63.464H159.004C158.759 63.464 158.535 63.496 158.332 63.56C158.135 63.624 157.964 63.728 157.82 63.872C157.676 64.016 157.564 64.2053 157.484 64.44C157.409 64.6747 157.372 64.9653 157.372 65.312V66.056H159.716V67.088H157.42V74H155.988ZM164.339 65.768C164.931 65.768 165.464 65.8667 165.939 66.064C166.419 66.2613 166.824 66.5413 167.155 66.904C167.491 67.2667 167.747 67.7067 167.923 68.224C168.104 68.736 168.195 69.3093 168.195 69.944C168.195 70.584 168.104 71.16 167.923 71.672C167.747 72.184 167.491 72.6213 167.155 72.984C166.824 73.3467 166.419 73.6267 165.939 73.824C165.464 74.016 164.931 74.112 164.339 74.112C163.747 74.112 163.211 74.016 162.731 73.824C162.256 73.6267 161.851 73.3467 161.515 72.984C161.179 72.6213 160.92 72.184 160.739 71.672C160.557 71.16 160.467 70.584 160.467 69.944C160.467 69.3093 160.557 68.736 160.739 68.224C160.92 67.7067 161.179 67.2667 161.515 66.904C161.851 66.5413 162.256 66.2613 162.731 66.064C163.211 65.8667 163.747 65.768 164.339 65.768ZM164.339 73C165.139 73 165.736 72.7333 166.131 72.2C166.525 71.6613 166.723 70.912 166.723 69.952C166.723 68.9867 166.525 68.2347 166.131 67.696C165.736 67.1573 165.139 66.888 164.339 66.888C163.933 66.888 163.581 66.9573 163.283 67.096C162.984 67.2347 162.733 67.4347 162.531 67.696C162.333 67.9573 162.184 68.28 162.083 68.664C161.987 69.0427 161.939 69.472 161.939 69.952C161.939 70.432 161.987 70.8613 162.083 71.24C162.184 71.6187 162.333 71.9387 162.531 72.2C162.733 72.456 162.984 72.6533 163.283 72.792C163.581 72.9307 163.933 73 164.339 73ZM169.949 74V65.896H170.765C170.92 65.896 171.027 65.9253 171.085 65.984C171.144 66.0427 171.184 66.144 171.205 66.288L171.301 67.552C171.579 66.9867 171.92 66.5467 172.325 66.232C172.736 65.912 173.216 65.752 173.765 65.752C173.989 65.752 174.192 65.7787 174.373 65.832C174.555 65.88 174.723 65.9493 174.877 66.04L174.693 67.104C174.656 67.2373 174.573 67.304 174.445 67.304C174.371 67.304 174.256 67.28 174.101 67.232C173.947 67.1787 173.731 67.152 173.453 67.152C172.957 67.152 172.541 67.296 172.205 67.584C171.875 67.872 171.597 68.2907 171.373 68.84V74H169.949ZM182.312 74.096C181.667 74.0373 181.077 73.88 180.544 73.624C180.016 73.3627 179.56 73.032 179.176 72.632L179.6 71.976C179.637 71.9173 179.691 71.8693 179.76 71.832C179.829 71.7947 179.901 71.776 179.976 71.776C180.077 71.776 180.192 71.8267 180.32 71.928C180.448 72.0293 180.605 72.1467 180.792 72.28C180.979 72.408 181.2 72.5333 181.456 72.656C181.717 72.7787 182.029 72.8613 182.392 72.904L182.688 68.656C182.315 68.544 181.947 68.4187 181.584 68.28C181.227 68.136 180.904 67.952 180.616 67.728C180.333 67.4987 180.104 67.2133 179.928 66.872C179.757 66.5253 179.672 66.0933 179.672 65.576C179.672 65.1867 179.747 64.808 179.896 64.44C180.051 64.0667 180.272 63.736 180.56 63.448C180.853 63.16 181.213 62.9253 181.64 62.744C182.067 62.5573 182.557 62.4533 183.112 62.432L183.192 61.28C183.203 61.1787 183.243 61.088 183.312 61.008C183.381 60.928 183.475 60.888 183.592 60.888H184.12L184.008 62.472C184.568 62.5413 185.051 62.6853 185.456 62.904C185.861 63.1227 186.224 63.3867 186.544 63.696L186.2 64.224C186.093 64.384 185.971 64.464 185.832 64.464C185.757 64.464 185.664 64.432 185.552 64.368C185.445 64.2987 185.315 64.2213 185.16 64.136C185.005 64.0453 184.827 63.9573 184.624 63.872C184.421 63.7813 184.189 63.7173 183.928 63.68L183.664 67.552C184.048 67.6693 184.427 67.7973 184.8 67.936C185.173 68.0747 185.509 68.2533 185.808 68.472C186.107 68.6907 186.347 68.9653 186.528 69.296C186.715 69.6213 186.808 70.0293 186.808 70.52C186.808 71 186.728 71.4507 186.568 71.872C186.408 72.2933 186.173 72.664 185.864 72.984C185.56 73.304 185.184 73.5653 184.736 73.768C184.293 73.9653 183.787 74.08 183.216 74.112L183.12 75.52C183.109 75.6213 183.067 75.7093 182.992 75.784C182.923 75.864 182.832 75.904 182.72 75.904H182.192L182.312 74.096ZM185.456 70.744C185.456 70.4773 185.405 70.248 185.304 70.056C185.208 69.864 185.075 69.6987 184.904 69.56C184.733 69.4213 184.533 69.3013 184.304 69.2C184.075 69.0987 183.829 69.0053 183.568 68.92L183.296 72.904C183.643 72.872 183.949 72.7973 184.216 72.68C184.488 72.5573 184.715 72.4027 184.896 72.216C185.083 72.0293 185.221 71.8133 185.312 71.568C185.408 71.3173 185.456 71.0427 185.456 70.744ZM181.016 65.432C181.016 65.688 181.061 65.912 181.152 66.104C181.243 66.2907 181.368 66.456 181.528 66.6C181.688 66.744 181.875 66.8693 182.088 66.976C182.301 67.0827 182.533 67.1787 182.784 67.264L183.024 63.656C182.677 63.688 182.376 63.7573 182.12 63.864C181.869 63.9707 181.661 64.104 181.496 64.264C181.336 64.424 181.216 64.6053 181.136 64.808C181.056 65.0053 181.016 65.2133 181.016 65.432ZM194.833 69.864H196.569V70.68C196.569 70.7653 196.543 70.8373 196.489 70.896C196.441 70.9547 196.364 70.984 196.257 70.984H194.833V74H193.577V70.984H188.497C188.391 70.984 188.297 70.9547 188.217 70.896C188.143 70.832 188.095 70.7547 188.073 70.664L187.929 69.936L193.505 62.536H194.833V69.864ZM193.577 65.136C193.577 64.9973 193.58 64.848 193.585 64.688C193.596 64.528 193.615 64.3627 193.641 64.192L189.473 69.864H193.577V65.136ZM205.691 68.272C205.691 69.2747 205.581 70.144 205.363 70.88C205.149 71.6107 204.856 72.216 204.483 72.696C204.109 73.176 203.667 73.5333 203.155 73.768C202.648 74.0027 202.104 74.12 201.523 74.12C200.936 74.12 200.389 74.0027 199.883 73.768C199.381 73.5333 198.944 73.176 198.571 72.696C198.197 72.216 197.904 71.6107 197.691 70.88C197.477 70.144 197.371 69.2747 197.371 68.272C197.371 67.2693 197.477 66.4 197.691 65.664C197.904 64.928 198.197 64.32 198.571 63.84C198.944 63.3547 199.381 62.9947 199.883 62.76C200.389 62.5253 200.936 62.408 201.523 62.408C202.104 62.408 202.648 62.5253 203.155 62.76C203.667 62.9947 204.109 63.3547 204.483 63.84C204.856 64.32 205.149 64.928 205.363 65.664C205.581 66.4 205.691 67.2693 205.691 68.272ZM204.211 68.272C204.211 67.3973 204.136 66.664 203.987 66.072C203.843 65.4747 203.645 64.9947 203.395 64.632C203.149 64.2693 202.864 64.0107 202.539 63.856C202.213 63.696 201.875 63.616 201.523 63.616C201.171 63.616 200.832 63.696 200.507 63.856C200.181 64.0107 199.896 64.2693 199.651 64.632C199.405 64.9947 199.208 65.4747 199.059 66.072C198.915 66.664 198.843 67.3973 198.843 68.272C198.843 69.1467 198.915 69.88 199.059 70.472C199.208 71.064 199.405 71.5413 199.651 71.904C199.896 72.2667 200.181 72.528 200.507 72.688C200.832 72.8427 201.171 72.92 201.523 72.92C201.875 72.92 202.213 72.8427 202.539 72.688C202.864 72.528 203.149 72.2667 203.395 71.904C203.645 71.5413 203.843 71.064 203.987 70.472C204.136 69.88 204.211 69.1467 204.211 68.272ZM216.386 74H215.754C215.615 74 215.503 73.9787 215.418 73.936C215.332 73.8933 215.276 73.8027 215.25 73.664L215.09 72.912C214.876 73.104 214.668 73.2773 214.466 73.432C214.263 73.5813 214.05 73.7093 213.826 73.816C213.602 73.9173 213.362 73.9947 213.106 74.048C212.855 74.1013 212.575 74.128 212.266 74.128C211.951 74.128 211.655 74.0853 211.378 74C211.106 73.9093 210.868 73.776 210.666 73.6C210.463 73.424 210.3 73.2027 210.178 72.936C210.06 72.664 210.002 72.344 210.002 71.976C210.002 71.656 210.09 71.3493 210.266 71.056C210.442 70.7573 210.724 70.4933 211.114 70.264C211.508 70.0347 212.023 69.848 212.658 69.704C213.292 69.5547 214.068 69.4693 214.986 69.448V68.816C214.986 68.1867 214.85 67.712 214.578 67.392C214.311 67.0667 213.914 66.904 213.386 66.904C213.039 66.904 212.746 66.9493 212.506 67.04C212.271 67.1253 212.066 67.224 211.89 67.336C211.719 67.4427 211.57 67.5413 211.442 67.632C211.319 67.7173 211.196 67.76 211.074 67.76C210.978 67.76 210.892 67.736 210.818 67.688C210.748 67.6347 210.692 67.5707 210.65 67.496L210.394 67.04C210.842 66.608 211.324 66.2853 211.842 66.072C212.359 65.8587 212.932 65.752 213.562 65.752C214.015 65.752 214.418 65.8267 214.77 65.976C215.122 66.1253 215.418 66.3333 215.658 66.6C215.898 66.8667 216.079 67.1893 216.202 67.568C216.324 67.9467 216.386 68.3627 216.386 68.816V74ZM212.69 73.128C212.94 73.128 213.17 73.104 213.378 73.056C213.586 73.0027 213.78 72.9307 213.962 72.84C214.148 72.744 214.324 72.6293 214.49 72.496C214.66 72.3627 214.826 72.2107 214.986 72.04V70.352C214.33 70.3733 213.772 70.4267 213.314 70.512C212.855 70.592 212.482 70.6987 212.194 70.832C211.906 70.9653 211.695 71.1227 211.562 71.304C211.434 71.4853 211.37 71.688 211.37 71.912C211.37 72.1253 211.404 72.3093 211.474 72.464C211.543 72.6187 211.636 72.7467 211.754 72.848C211.871 72.944 212.01 73.016 212.17 73.064C212.33 73.1067 212.503 73.128 212.69 73.128ZM221.637 74V65.896H222.485C222.687 65.896 222.815 65.9947 222.869 66.192L222.973 67.024C223.271 66.656 223.605 66.3547 223.973 66.12C224.346 65.8853 224.778 65.768 225.269 65.768C225.818 65.768 226.261 65.92 226.597 66.224C226.938 66.528 227.183 66.9387 227.333 67.456C227.445 67.1627 227.591 66.9093 227.773 66.696C227.959 66.4827 228.167 66.3067 228.397 66.168C228.626 66.0293 228.869 65.928 229.125 65.864C229.386 65.8 229.65 65.768 229.917 65.768C230.343 65.768 230.722 65.8373 231.053 65.976C231.389 66.1093 231.671 66.3067 231.901 66.568C232.135 66.8293 232.314 67.152 232.437 67.536C232.559 67.9147 232.621 68.3493 232.621 68.84V74H231.197V68.84C231.197 68.2053 231.058 67.7253 230.781 67.4C230.503 67.0693 230.101 66.904 229.573 66.904C229.338 66.904 229.114 66.9467 228.901 67.032C228.693 67.112 228.509 67.232 228.349 67.392C228.189 67.552 228.061 67.7547 227.965 68C227.874 68.24 227.829 68.52 227.829 68.84V74H226.405V68.84C226.405 68.1893 226.274 67.704 226.013 67.384C225.751 67.064 225.37 66.904 224.869 66.904C224.517 66.904 224.189 67 223.885 67.192C223.586 67.3787 223.311 67.6347 223.061 67.96V74H221.637ZM238.057 65.768C238.649 65.768 239.183 65.8667 239.657 66.064C240.137 66.2613 240.543 66.5413 240.873 66.904C241.209 67.2667 241.465 67.7067 241.641 68.224C241.823 68.736 241.913 69.3093 241.913 69.944C241.913 70.584 241.823 71.16 241.641 71.672C241.465 72.184 241.209 72.6213 240.873 72.984C240.543 73.3467 240.137 73.6267 239.657 73.824C239.183 74.016 238.649 74.112 238.057 74.112C237.465 74.112 236.929 74.016 236.449 73.824C235.975 73.6267 235.569 73.3467 235.233 72.984C234.897 72.6213 234.639 72.184 234.457 71.672C234.276 71.16 234.185 70.584 234.185 69.944C234.185 69.3093 234.276 68.736 234.457 68.224C234.639 67.7067 234.897 67.2667 235.233 66.904C235.569 66.5413 235.975 66.2613 236.449 66.064C236.929 65.8667 237.465 65.768 238.057 65.768ZM238.057 73C238.857 73 239.455 72.7333 239.849 72.2C240.244 71.6613 240.441 70.912 240.441 69.952C240.441 68.9867 240.244 68.2347 239.849 67.696C239.455 67.1573 238.857 66.888 238.057 66.888C237.652 66.888 237.3 66.9573 237.001 67.096C236.703 67.2347 236.452 67.4347 236.249 67.696C236.052 67.9573 235.903 68.28 235.801 68.664C235.705 69.0427 235.657 69.472 235.657 69.952C235.657 70.432 235.705 70.8613 235.801 71.24C235.903 71.6187 236.052 71.9387 236.249 72.2C236.452 72.456 236.703 72.6533 237.001 72.792C237.3 72.9307 237.652 73 238.057 73ZM243.668 74V65.896H244.516C244.719 65.896 244.847 65.9947 244.9 66.192L245.012 67.072C245.364 66.6827 245.756 66.368 246.188 66.128C246.625 65.888 247.129 65.768 247.7 65.768C248.143 65.768 248.532 65.8427 248.868 65.992C249.209 66.136 249.492 66.344 249.716 66.616C249.945 66.8827 250.119 67.2053 250.236 67.584C250.353 67.9627 250.412 68.3813 250.412 68.84V74H248.988V68.84C248.988 68.2267 248.847 67.752 248.564 67.416C248.287 67.0747 247.86 66.904 247.284 66.904C246.863 66.904 246.468 67.0053 246.1 67.208C245.737 67.4107 245.401 67.6853 245.092 68.032V74H243.668ZM255.015 74.128C254.375 74.128 253.881 73.9493 253.535 73.592C253.193 73.2347 253.023 72.72 253.023 72.048V67.088H252.047C251.961 67.088 251.889 67.064 251.831 67.016C251.772 66.9627 251.743 66.8827 251.743 66.776V66.208L253.071 66.04L253.399 63.536C253.409 63.456 253.444 63.392 253.503 63.344C253.561 63.2907 253.636 63.264 253.727 63.264H254.447V66.056H256.767V67.088H254.447V71.952C254.447 72.2933 254.529 72.5467 254.695 72.712C254.86 72.8773 255.073 72.96 255.335 72.96C255.484 72.96 255.612 72.9413 255.719 72.904C255.831 72.8613 255.927 72.816 256.007 72.768C256.087 72.72 256.153 72.6773 256.207 72.64C256.265 72.5973 256.316 72.576 256.359 72.576C256.433 72.576 256.5 72.6213 256.559 72.712L256.975 73.392C256.729 73.6213 256.433 73.8027 256.087 73.936C255.74 74.064 255.383 74.128 255.015 74.128ZM258.527 74V62.216H259.951V66.984C260.298 66.616 260.682 66.3227 261.103 66.104C261.525 65.88 262.01 65.768 262.559 65.768C263.002 65.768 263.391 65.8427 263.727 65.992C264.069 66.136 264.351 66.344 264.575 66.616C264.805 66.8827 264.978 67.2053 265.095 67.584C265.213 67.9627 265.271 68.3813 265.271 68.84V74H263.847V68.84C263.847 68.2267 263.706 67.752 263.423 67.416C263.146 67.0747 262.719 66.904 262.143 66.904C261.722 66.904 261.327 67.0053 260.959 67.208C260.597 67.4107 260.261 67.6853 259.951 68.032V74H258.527ZM269.69 62.536V67.112C269.69 67.352 269.685 67.5867 269.674 67.816C269.669 68.0453 269.658 68.2773 269.642 68.512C269.626 68.7413 269.605 68.9787 269.578 69.224C269.557 69.464 269.53 69.7227 269.498 70H268.53C268.498 69.7227 268.469 69.464 268.442 69.224C268.421 68.9787 268.402 68.7413 268.386 68.512C268.37 68.2773 268.357 68.0453 268.346 67.816C268.341 67.5867 268.338 67.352 268.338 67.112V62.536H269.69ZM267.994 73.12C267.994 72.9813 268.018 72.8507 268.066 72.728C268.119 72.6053 268.189 72.4987 268.274 72.408C268.365 72.3173 268.471 72.2453 268.594 72.192C268.717 72.1387 268.847 72.112 268.986 72.112C269.125 72.112 269.255 72.1387 269.378 72.192C269.501 72.2453 269.607 72.3173 269.698 72.408C269.789 72.4987 269.858 72.6053 269.906 72.728C269.959 72.8507 269.986 72.9813 269.986 73.12C269.986 73.264 269.959 73.3973 269.906 73.52C269.858 73.6373 269.789 73.7413 269.698 73.832C269.607 73.9227 269.501 73.992 269.378 74.04C269.255 74.0933 269.125 74.12 268.986 74.12C268.847 74.12 268.717 74.0933 268.594 74.04C268.471 73.992 268.365 73.9227 268.274 73.832C268.189 73.7413 268.119 73.6373 268.066 73.52C268.018 73.3973 267.994 73.264 267.994 73.12Z" fill="#4D4D4D"/>
<rect x="326.422" width="17.5784" height="17.5663" rx="8.78316" fill="#CFDCDE"/>
<path d="M338.143 11.7089H336.563C336.446 11.7089 336.351 11.6788 336.276 11.6186C336.206 11.5584 336.149 11.4869 336.107 11.4042L335.126 9.60982C335.108 9.67377 335.087 9.73395 335.062 9.79038C335.038 9.84681 335.011 9.89947 334.983 9.94837L334.177 11.4042C334.128 11.4794 334.069 11.549 334.002 11.613C333.935 11.6769 333.848 11.7089 333.742 11.7089H332.279L334.124 8.68442L332.353 5.85745H333.933C334.05 5.85745 334.135 5.87438 334.188 5.90824C334.244 5.93833 334.294 5.991 334.336 6.06623L335.317 7.79852C335.338 7.73081 335.365 7.66498 335.396 7.60103C335.428 7.53332 335.463 7.46561 335.502 7.3979L336.202 6.09444C336.252 6.01168 336.303 5.9515 336.356 5.91388C336.412 5.87626 336.481 5.85745 336.563 5.85745H338.068L336.298 8.60542L338.143 11.7089Z" fill="black"/>
</svg>
