<svg width="132" height="60" viewBox="0 0 132 60" fill="none" xmlns="http://www.w3.org/2000/svg">
<rect width="132" height="60" rx="30" fill="#FF6A00"/>
<path d="M36.122 32.617V37H33.08V23.887H37.706C38.63 23.887 39.422 23.998 40.082 24.22C40.748 24.436 41.294 24.736 41.72 25.12C42.152 25.504 42.47 25.957 42.674 26.479C42.878 27.001 42.98 27.565 42.98 28.171C42.98 28.825 42.875 29.425 42.665 29.971C42.455 30.517 42.134 30.985 41.702 31.375C41.27 31.765 40.721 32.071 40.055 32.293C39.395 32.509 38.612 32.617 37.706 32.617H36.122ZM36.122 30.322H37.706C38.498 30.322 39.068 30.133 39.416 29.755C39.764 29.377 39.938 28.849 39.938 28.171C39.938 27.871 39.893 27.598 39.803 27.352C39.713 27.106 39.575 26.896 39.389 26.722C39.209 26.542 38.978 26.404 38.696 26.308C38.42 26.212 38.09 26.164 37.706 26.164H36.122V30.322ZM44.6485 37V27.667H46.3045C46.4425 27.667 46.5565 27.679 46.6465 27.703C46.7425 27.727 46.8205 27.766 46.8805 27.82C46.9465 27.868 46.9945 27.934 47.0245 28.018C47.0605 28.102 47.0905 28.204 47.1145 28.324L47.2675 29.197C47.6095 28.669 47.9935 28.252 48.4195 27.946C48.8455 27.64 49.3105 27.487 49.8145 27.487C50.2405 27.487 50.5825 27.589 50.8405 27.793L50.4805 29.845C50.4565 29.971 50.4085 30.061 50.3365 30.115C50.2645 30.163 50.1685 30.187 50.0485 30.187C49.9465 30.187 49.8265 30.175 49.6885 30.151C49.5505 30.121 49.3765 30.106 49.1665 30.106C48.4345 30.106 47.8585 30.496 47.4385 31.276V37H44.6485ZM55.0541 27.667V37H52.2641V27.667H55.0541ZM55.3781 25.111C55.3781 25.333 55.3331 25.543 55.2431 25.741C55.1531 25.933 55.0301 26.104 54.8741 26.254C54.7181 26.398 54.5351 26.515 54.3251 26.605C54.1211 26.689 53.9021 26.731 53.6681 26.731C53.4401 26.731 53.2271 26.689 53.0291 26.605C52.8311 26.515 52.6541 26.398 52.4981 26.254C52.3481 26.104 52.2281 25.933 52.1381 25.741C52.0541 25.543 52.0121 25.333 52.0121 25.111C52.0121 24.883 52.0541 24.67 52.1381 24.472C52.2281 24.274 52.3481 24.1 52.4981 23.95C52.6541 23.8 52.8311 23.683 53.0291 23.599C53.2271 23.515 53.4401 23.473 53.6681 23.473C53.9021 23.473 54.1211 23.515 54.3251 23.599C54.5351 23.683 54.7181 23.8 54.8741 23.95C55.0301 24.1 55.1531 24.274 55.2431 24.472C55.3331 24.67 55.3781 24.883 55.3781 25.111ZM57.3969 37V27.667H59.1249C59.2989 27.667 59.4429 27.706 59.5569 27.784C59.6769 27.862 59.7609 27.979 59.8089 28.135L59.9619 28.639C60.1179 28.477 60.2799 28.33 60.4479 28.198C60.6159 28.06 60.7959 27.943 60.9879 27.847C61.1859 27.745 61.3959 27.667 61.6179 27.613C61.8459 27.553 62.0949 27.523 62.3649 27.523C62.9289 27.523 63.3939 27.67 63.7599 27.964C64.1319 28.252 64.4139 28.639 64.6059 29.125C64.7619 28.837 64.9509 28.591 65.1729 28.387C65.4009 28.183 65.6439 28.018 65.9019 27.892C66.1659 27.766 66.4419 27.673 66.7299 27.613C67.0239 27.553 67.3149 27.523 67.6029 27.523C68.1369 27.523 68.6109 27.604 69.0249 27.766C69.4389 27.922 69.7839 28.153 70.0599 28.459C70.3419 28.759 70.5549 29.131 70.6989 29.575C70.8429 30.013 70.9149 30.511 70.9149 31.069V37H68.1249V31.069C68.1249 30.103 67.7109 29.62 66.8829 29.62C66.5049 29.62 66.1899 29.746 65.9379 29.998C65.6919 30.244 65.5689 30.601 65.5689 31.069V37H62.7789V31.069C62.7789 30.535 62.6739 30.16 62.4639 29.944C62.2539 29.728 61.9449 29.62 61.5369 29.62C61.2849 29.62 61.0449 29.677 60.8169 29.791C60.5949 29.905 60.3849 30.058 60.1869 30.25V37H57.3969ZM79.4348 37C79.1708 37 78.9698 36.964 78.8318 36.892C78.6998 36.82 78.5888 36.67 78.4988 36.442L78.3008 35.929C78.0668 36.127 77.8418 36.301 77.6258 36.451C77.4098 36.601 77.1848 36.73 76.9508 36.838C76.7228 36.94 76.4768 37.015 76.2128 37.063C75.9548 37.117 75.6668 37.144 75.3488 37.144C74.9228 37.144 74.5358 37.09 74.1878 36.982C73.8398 36.868 73.5428 36.703 73.2968 36.487C73.0568 36.271 72.8708 36.004 72.7388 35.686C72.6068 35.362 72.5408 34.99 72.5408 34.57C72.5408 34.24 72.6248 33.901 72.7928 33.553C72.9608 33.205 73.2518 32.89 73.6658 32.608C74.0798 32.32 74.6378 32.08 75.3398 31.888C76.0418 31.696 76.9268 31.588 77.9948 31.564V31.168C77.9948 30.622 77.8808 30.229 77.6528 29.989C77.4308 29.743 77.1128 29.62 76.6988 29.62C76.3688 29.62 76.0988 29.656 75.8888 29.728C75.6788 29.8 75.4898 29.881 75.3218 29.971C75.1598 30.061 75.0008 30.142 74.8448 30.214C74.6888 30.286 74.5028 30.322 74.2868 30.322C74.0948 30.322 73.9298 30.277 73.7918 30.187C73.6598 30.091 73.5548 29.974 73.4768 29.836L72.9728 28.963C73.5368 28.465 74.1608 28.096 74.8448 27.856C75.5348 27.61 76.2728 27.487 77.0588 27.487C77.6228 27.487 78.1298 27.58 78.5798 27.766C79.0358 27.946 79.4198 28.201 79.7318 28.531C80.0498 28.855 80.2928 29.242 80.4608 29.692C80.6288 30.142 80.7128 30.634 80.7128 31.168V37H79.4348ZM76.2308 35.299C76.5908 35.299 76.9058 35.236 77.1758 35.11C77.4458 34.984 77.7188 34.78 77.9948 34.498V33.202C77.4368 33.226 76.9778 33.274 76.6178 33.346C76.2578 33.418 75.9728 33.508 75.7628 33.616C75.5528 33.724 75.4058 33.847 75.3218 33.985C75.2438 34.123 75.2048 34.273 75.2048 34.435C75.2048 34.753 75.2918 34.978 75.4658 35.11C75.6398 35.236 75.8948 35.299 76.2308 35.299ZM82.7839 37V27.667H84.4399C84.5779 27.667 84.6919 27.679 84.7819 27.703C84.8779 27.727 84.9559 27.766 85.0159 27.82C85.0819 27.868 85.1299 27.934 85.1599 28.018C85.1959 28.102 85.2259 28.204 85.2499 28.324L85.4029 29.197C85.7449 28.669 86.1289 28.252 86.5549 27.946C86.9809 27.64 87.4459 27.487 87.9499 27.487C88.3759 27.487 88.7179 27.589 88.9759 27.793L88.6159 29.845C88.5919 29.971 88.5439 30.061 88.4719 30.115C88.3999 30.163 88.3039 30.187 88.1839 30.187C88.0819 30.187 87.9619 30.175 87.8239 30.151C87.6859 30.121 87.5119 30.106 87.3019 30.106C86.5699 30.106 85.9939 30.496 85.5739 31.276V37H82.7839ZM94.1255 39.421C94.0415 39.607 93.9395 39.742 93.8195 39.826C93.6995 39.916 93.5075 39.961 93.2435 39.961H91.1555L92.9555 36.181L89.2295 27.667H91.6955C91.9115 27.667 92.0795 27.715 92.1995 27.811C92.3195 27.907 92.4035 28.021 92.4515 28.153L93.9815 32.176C94.1255 32.548 94.2425 32.92 94.3325 33.292C94.3925 33.1 94.4585 32.911 94.5305 32.725C94.6025 32.539 94.6715 32.35 94.7375 32.158L96.1235 28.153C96.1715 28.015 96.2645 27.901 96.4025 27.811C96.5465 27.715 96.6995 27.667 96.8615 27.667H99.1115L94.1255 39.421Z" fill="white"/>
</svg>
