<svg width="24" height="24" viewBox="0 0 24 24" fill="none" xmlns="http://www.w3.org/2000/svg">
<path d="M9.64706 5.72414C9.64706 5.32435 9.96176 5 10.3529 5H10.8235C11.2147 5 11.5294 5.32435 11.5294 5.72414C11.5294 6.12392 11.2147 6.44828 10.8235 6.44828H10.3529C9.96176 6.44828 9.64706 6.12392 9.64706 5.72414ZM9.64706 8.13793C9.64706 7.73664 9.96176 7.41379 10.3529 7.41379H10.8235C11.2147 7.41379 11.5294 7.73664 11.5294 8.13793C11.5294 8.53922 11.2147 8.86207 10.8235 8.86207H10.3529C9.96176 8.86207 9.64706 8.53922 9.64706 8.13793ZM4 10.5517C4 10.1504 4.31618 9.82759 4.70588 9.82759H5.17647C5.56618 9.82759 5.88235 10.1504 5.88235 10.5517C5.88235 10.953 5.56618 11.2759 5.17647 11.2759H4.70588C4.31618 11.2759 4 10.953 4 10.5517ZM19.1941 12.2414C19.6382 12.2414 20 12.6125 20 13.0681C20 15.2677 18.6059 17.1353 16.6735 17.7871C16.6941 17.8655 16.7059 17.95 16.7059 18.0345C16.7059 18.5685 16.2853 19 15.7647 19H8.23529C7.71471 19 7.29412 18.5685 7.29412 18.0345C7.29412 17.95 7.30588 17.8655 7.32647 17.7871C5.39412 17.1353 4 15.2677 4 13.0681C4 12.6125 4.36118 12.2414 4.80676 12.2414H19.1941ZM10.8235 9.82759C11.2147 9.82759 11.5294 10.1504 11.5294 10.5517C11.5294 10.953 11.2147 11.2759 10.8235 11.2759H10.3529C9.96176 11.2759 9.64706 10.953 9.64706 10.5517C9.64706 10.1504 9.96176 9.82759 10.3529 9.82759H10.8235ZM8 9.82759C8.39118 9.82759 8.70588 10.1504 8.70588 10.5517C8.70588 10.953 8.39118 11.2759 8 11.2759H7.52941C7.13824 11.2759 6.82353 10.953 6.82353 10.5517C6.82353 10.1504 7.13824 9.82759 7.52941 9.82759H8ZM6.82353 8.13793C6.82353 7.73664 7.13824 7.41379 7.52941 7.41379H8C8.39118 7.41379 8.70588 7.73664 8.70588 8.13793C8.70588 8.53922 8.39118 8.86207 8 8.86207H7.52941C7.13824 8.86207 6.82353 8.53922 6.82353 8.13793ZM13.6471 9.82759C14.0382 9.82759 14.3529 10.1504 14.3529 10.5517C14.3529 10.953 14.0382 11.2759 13.6471 11.2759H13.1765C12.7853 11.2759 12.4706 10.953 12.4706 10.5517C12.4706 10.1504 12.7853 9.82759 13.1765 9.82759H13.6471ZM12.4706 8.13793C12.4706 7.73664 12.7853 7.41379 13.1765 7.41379H13.6471C14.0382 7.41379 14.3529 7.73664 14.3529 8.13793C14.3529 8.53922 14.0382 8.86207 13.6471 8.86207H13.1765C12.7853 8.86207 12.4706 8.53922 12.4706 8.13793ZM16.4706 9.82759C16.8618 9.82759 17.1765 10.1504 17.1765 10.5517C17.1765 10.953 16.8618 11.2759 16.4706 11.2759H16C15.6088 11.2759 15.2941 10.953 15.2941 10.5517C15.2941 10.1504 15.6088 9.82759 16 9.82759H16.4706ZM15.2941 8.13793C15.2941 7.73664 15.6088 7.41379 16 7.41379H16.4706C16.8618 7.41379 17.1765 7.73664 17.1765 8.13793C17.1765 8.53922 16.8618 8.86207 16.4706 8.86207H16C15.6088 8.86207 15.2941 8.53922 15.2941 8.13793ZM19.2941 9.82759C19.6853 9.82759 20 10.1504 20 10.5517C20 10.953 19.6853 11.2759 19.2941 11.2759H18.8235C18.4324 11.2759 18.1176 10.953 18.1176 10.5517C18.1176 10.1504 18.4324 9.82759 18.8235 9.82759H19.2941ZM13.6471 5C14.0382 5 14.3529 5.32435 14.3529 5.72414C14.3529 6.12392 14.0382 6.44828 13.6471 6.44828H13.1765C12.7853 6.44828 12.4706 6.12392 12.4706 5.72414C12.4706 5.32435 12.7853 5 13.1765 5H13.6471Z" fill="#FF6B00"/>
</svg>
